# xmcd
#
# Track frame offsets: 
#        150
#        14479
#        29959
#        48352
#        62396
#        84043
#        105449
#
# Disc length: 1620 seconds
#
# Revision: 0
# Processed by: cddbd v1.5.2PL0 Copyright (c) Steve Scherf et al.
# Submitted via: ExactAudioCopyFreeDBPlugin 1.0
#
DISCID=4c065207
DTITLE=Lantana - Life Is Good
DYEAR=2004
DGENRE=Country
TTITLE0=Oh Baby
TTITLE1=He's A Hottie
TTITLE2=Back To Being Me
TTITLE3=Texas
TTITLE4=I've Got What You Need
TTITLE5=Better Days Are Coming
TTITLE6=Life Is Good
EXTD=
EXTT0=
EXTT1=
EXTT2=
EXTT3=
EXTT4=
EXTT5=
EXTT6=
PLAYORDER=
